<?xml version="1.0" encoding="UTF-8"?>
<svg xmlns="http://www.w3.org/2000/svg" xmlns:xlink="http://www.w3.org/1999/xlink" width="30pt" height="30.000001pt" viewBox="0 0 30 30.000001" version="1.2">
<defs>
<clipPath id="clip1">
  <path d="M 6.238281 7 L 23.554688 7 L 23.554688 26.804688 L 6.238281 26.804688 Z M 6.238281 7 "/>
</clipPath>
<clipPath id="clip2">
  <path d="M 10 2.160156 L 13 2.160156 L 13 6 L 10 6 Z M 10 2.160156 "/>
</clipPath>
<clipPath id="clip3">
  <path d="M 13 2.160156 L 17 2.160156 L 17 6 L 13 6 Z M 13 2.160156 "/>
</clipPath>
<clipPath id="clip4">
  <path d="M 16 2.160156 L 20 2.160156 L 20 6 L 16 6 Z M 16 2.160156 "/>
</clipPath>
</defs>
<g id="surface1">
<g clip-path="url(#clip1)" clip-rule="nonzero">
<path style=" stroke:none;fill-rule:nonzero;fill:rgb(14.898682%,30.198669%,89.408875%);fill-opacity:1;" d="M 14.890625 26.800781 L 7.824219 24.824219 L 6.25 7.003906 L 23.550781 7.003906 L 21.976562 24.820312 Z M 14.890625 26.800781 "/>
</g>
<path style=" stroke:none;fill-rule:nonzero;fill:rgb(16.079712%,39.608765%,94.509888%);fill-opacity:1;" d="M 20.625 23.6875 L 21.972656 8.460938 L 14.902344 8.460938 L 14.902344 25.289062 Z M 20.625 23.6875 "/>
<path style=" stroke:none;fill-rule:nonzero;fill:rgb(92.158508%,92.158508%,92.158508%);fill-opacity:1;" d="M 9.859375 15.070312 L 10.054688 17.253906 L 14.902344 17.253906 L 14.902344 15.070312 Z M 9.859375 15.070312 "/>
<path style=" stroke:none;fill-rule:nonzero;fill:rgb(92.158508%,92.158508%,92.158508%);fill-opacity:1;" d="M 9.46875 10.644531 L 9.664062 12.832031 L 14.902344 12.832031 L 14.902344 10.644531 Z M 9.46875 10.644531 "/>
<path style=" stroke:none;fill-rule:nonzero;fill:rgb(92.158508%,92.158508%,92.158508%);fill-opacity:1;" d="M 14.902344 20.746094 L 14.890625 20.75 L 12.480469 20.089844 L 12.324219 18.347656 L 10.148438 18.347656 L 10.453125 21.78125 L 14.890625 23.023438 L 14.902344 23.019531 Z M 14.902344 20.746094 "/>
<g clip-path="url(#clip2)" clip-rule="nonzero">
<path style=" stroke:none;fill-rule:nonzero;fill:rgb(0%,0%,0%);fill-opacity:1;" d="M 10.320312 2.160156 L 12.945312 2.160156 L 12.945312 3.265625 L 11.417969 3.265625 L 11.417969 4.375 L 12.945312 4.375 L 12.945312 5.480469 L 10.320312 5.480469 Z M 10.320312 2.160156 "/>
</g>
<g clip-path="url(#clip3)" clip-rule="nonzero">
<path style=" stroke:none;fill-rule:nonzero;fill:rgb(0%,0%,0%);fill-opacity:1;" d="M 13.46875 2.160156 L 16.09375 2.160156 L 16.09375 3.121094 L 14.566406 3.121094 L 14.566406 3.316406 L 16.09375 3.316406 L 16.09375 5.527344 L 13.46875 5.527344 L 13.46875 4.519531 L 14.996094 4.519531 L 14.996094 4.324219 L 13.46875 4.324219 Z M 13.46875 2.160156 "/>
</g>
<g clip-path="url(#clip4)" clip-rule="nonzero">
<path style=" stroke:none;fill-rule:nonzero;fill:rgb(0%,0%,0%);fill-opacity:1;" d="M 16.617188 2.160156 L 19.242188 2.160156 L 19.242188 3.121094 L 17.714844 3.121094 L 17.714844 3.316406 L 19.242188 3.316406 L 19.242188 5.527344 L 16.617188 5.527344 L 16.617188 4.519531 L 18.144531 4.519531 L 18.144531 4.324219 L 16.617188 4.324219 Z M 16.617188 2.160156 "/>
</g>
<path style=" stroke:none;fill-rule:nonzero;fill:rgb(100%,100%,100%);fill-opacity:1;" d="M 19.929688 15.070312 L 20.320312 10.644531 L 14.894531 10.644531 L 14.894531 12.832031 L 17.945312 12.832031 L 17.75 15.070312 L 14.894531 15.070312 L 14.894531 17.253906 L 17.5625 17.253906 L 17.308594 20.089844 L 14.894531 20.746094 L 14.894531 23.019531 L 19.332031 21.78125 L 19.367188 21.410156 L 19.875 15.65625 Z M 19.929688 15.070312 "/>
</g>
</svg>
