<?xml version="1.0" encoding="UTF-8"?>
<svg xmlns="http://www.w3.org/2000/svg" xmlns:xlink="http://www.w3.org/1999/xlink" width="30pt" height="30.000001pt" viewBox="0 0 30 30.000001" version="1.2">
<defs>
<clipPath id="clip1">
  <path d="M 6.261719 7 L 23.636719 7 L 23.636719 26.871094 L 6.261719 26.871094 Z M 6.261719 7 "/>
</clipPath>
<clipPath id="clip2">
  <path d="M 7 2.195312 L 12 2.195312 L 12 6 L 7 6 Z M 7 2.195312 "/>
</clipPath>
<clipPath id="clip3">
  <path d="M 11 2.195312 L 15 2.195312 L 15 6 L 11 6 Z M 11 2.195312 "/>
</clipPath>
<clipPath id="clip4">
  <path d="M 15 2.195312 L 19 2.195312 L 19 6 L 15 6 Z M 15 2.195312 "/>
</clipPath>
<clipPath id="clip5">
  <path d="M 19 2.195312 L 23 2.195312 L 23 6 L 19 6 Z M 19 2.195312 "/>
</clipPath>
</defs>
<g id="surface1">
<g clip-path="url(#clip1)" clip-rule="nonzero">
<path style=" stroke:none;fill-rule:nonzero;fill:rgb(89.408875%,30.198669%,14.898682%);fill-opacity:1;" d="M 23.632812 7.054688 L 22.050781 24.929688 L 14.941406 26.917969 L 7.851562 24.929688 L 6.273438 7.054688 Z M 23.632812 7.054688 "/>
</g>
<path style=" stroke:none;fill-rule:nonzero;fill:rgb(94.509888%,39.608765%,16.079712%);fill-opacity:1;" d="M 14.953125 25.398438 L 20.699219 23.789062 L 22.050781 8.515625 L 14.953125 8.515625 Z M 14.953125 25.398438 "/>
<path style=" stroke:none;fill-rule:nonzero;fill:rgb(92.158508%,92.158508%,92.158508%);fill-opacity:1;" d="M 11.878906 12.898438 L 14.953125 12.898438 L 14.953125 10.707031 L 9.503906 10.707031 L 9.554688 11.296875 L 10.089844 17.339844 L 14.953125 17.339844 L 14.953125 15.144531 L 12.078125 15.144531 Z M 11.878906 12.898438 "/>
<path style=" stroke:none;fill-rule:nonzero;fill:rgb(92.158508%,92.158508%,92.158508%);fill-opacity:1;" d="M 12.367188 18.433594 L 10.1875 18.433594 L 10.492188 21.878906 L 14.945312 23.125 L 14.953125 23.121094 L 14.953125 20.839844 L 14.945312 20.84375 L 12.523438 20.183594 Z M 12.367188 18.433594 "/>
<g clip-path="url(#clip2)" clip-rule="nonzero">
<path style=" stroke:none;fill-rule:nonzero;fill:rgb(0%,0%,0%);fill-opacity:1;" d="M 7.890625 2.195312 L 8.992188 2.195312 L 8.992188 3.296875 L 10.003906 3.296875 L 10.003906 2.195312 L 11.109375 2.195312 L 11.109375 5.527344 L 10.003906 5.527344 L 10.003906 4.414062 L 8.992188 4.414062 L 8.992188 5.527344 L 7.890625 5.527344 Z M 7.890625 2.195312 "/>
</g>
<g clip-path="url(#clip3)" clip-rule="nonzero">
<path style=" stroke:none;fill-rule:nonzero;fill:rgb(0%,0%,0%);fill-opacity:1;" d="M 12.558594 3.300781 L 11.589844 3.300781 L 11.589844 2.195312 L 14.636719 2.195312 L 14.636719 3.300781 L 13.664062 3.300781 L 13.664062 5.527344 L 12.558594 5.527344 Z M 12.558594 3.300781 "/>
</g>
<g clip-path="url(#clip4)" clip-rule="nonzero">
<path style=" stroke:none;fill-rule:nonzero;fill:rgb(0%,0%,0%);fill-opacity:1;" d="M 15.121094 2.195312 L 16.273438 2.195312 L 16.980469 3.367188 L 17.6875 2.195312 L 18.839844 2.195312 L 18.839844 5.527344 L 17.742188 5.527344 L 17.742188 3.875 L 16.980469 5.0625 L 16.960938 5.0625 L 16.203125 3.875 L 16.203125 5.527344 L 15.121094 5.527344 Z M 15.121094 2.195312 "/>
</g>
<g clip-path="url(#clip5)" clip-rule="nonzero">
<path style=" stroke:none;fill-rule:nonzero;fill:rgb(0%,0%,0%);fill-opacity:1;" d="M 19.390625 2.195312 L 20.496094 2.195312 L 20.496094 4.425781 L 22.050781 4.425781 L 22.050781 5.527344 L 19.390625 5.527344 Z M 19.390625 2.195312 "/>
</g>
<path style=" stroke:none;fill-rule:nonzero;fill:rgb(100%,100%,100%);fill-opacity:1;" d="M 14.945312 17.339844 L 17.621094 17.339844 L 17.371094 20.183594 L 14.945312 20.84375 L 14.945312 23.125 L 19.402344 21.878906 L 19.433594 21.507812 L 19.945312 15.734375 L 19.996094 15.144531 L 14.945312 15.144531 Z M 14.945312 17.339844 "/>
<path style=" stroke:none;fill-rule:nonzero;fill:rgb(100%,100%,100%);fill-opacity:1;" d="M 14.945312 12.894531 L 14.945312 12.898438 L 20.195312 12.898438 L 20.238281 12.40625 L 20.339844 11.296875 L 20.390625 10.707031 L 14.945312 10.707031 Z M 14.945312 12.894531 "/>
</g>
</svg>
