<?xml version="1.0" encoding="UTF-8"?>
<svg xmlns="http://www.w3.org/2000/svg" xmlns:xlink="http://www.w3.org/1999/xlink" width="30pt" height="30.000001pt" viewBox="0 0 30 30.000001" version="1.2">
<defs>
<clipPath id="clip1">
  <path d="M 2.734375 2.25 L 27.410156 2.25 L 27.410156 26.925781 L 2.734375 26.925781 Z M 2.734375 2.25 "/>
</clipPath>
</defs>
<g id="surface1">
<g clip-path="url(#clip1)" clip-rule="nonzero">
<path style=" stroke:none;fill-rule:nonzero;fill:rgb(100%,83.918762%,0%);fill-opacity:1;" d="M 2.734375 2.25 L 27.558594 2.25 L 27.558594 27.074219 L 2.734375 27.074219 Z M 2.734375 2.25 "/>
</g>
<path style=" stroke:none;fill-rule:nonzero;fill:rgb(0%,0%,0.389099%);fill-opacity:1;" d="M 18.964844 20.832031 C 19.441406 21.609375 19.960938 22.351562 21.058594 22.351562 C 21.984375 22.351562 22.46875 21.890625 22.46875 21.257812 C 22.46875 20.5 21.964844 20.230469 20.949219 19.785156 L 20.394531 19.550781 C 18.789062 18.867188 17.71875 18.015625 17.71875 16.210938 C 17.71875 14.550781 18.992188 13.285156 20.980469 13.285156 C 22.398438 13.285156 23.414062 13.773438 24.148438 15.058594 L 22.414062 16.167969 C 22.03125 15.484375 21.621094 15.21875 20.980469 15.21875 C 20.328125 15.21875 19.914062 15.628906 19.914062 16.167969 C 19.914062 16.832031 20.328125 17.101562 21.285156 17.511719 L 21.839844 17.75 C 23.734375 18.554688 24.800781 19.378906 24.800781 21.230469 C 24.800781 23.222656 23.226562 24.316406 21.113281 24.316406 C 19.042969 24.316406 17.871094 23.28125 17.214844 21.996094 Z M 10.976562 20.890625 C 11.324219 21.515625 11.855469 21.996094 12.617188 21.996094 C 13.347656 21.996094 13.765625 21.707031 13.765625 20.585938 L 13.765625 13.285156 L 16.066406 13.285156 L 16.066406 20.9375 C 16.066406 23.261719 14.71875 24.316406 12.753906 24.316406 C 10.976562 24.316406 9.691406 23.113281 9.171875 21.996094 Z M 10.976562 20.890625 "/>
</g>
</svg>
